<svg xmlns:dc="http://purl.org/dc/elements/1.1/" 
xmlns:cc="http://creativecommons.org/ns#" 
xmlns:rdf="http://www.w3.org/1999/02/22-rdf-syntax-ns#" 
xmlns:svg="http://www.w3.org/2000/svg" 
xmlns="http://www.w3.org/2000/svg" version="1.1" id="svg4326" 
viewBox="458 232 48 35" 
height="55" 
width="55">
<style>
.s0{
	-inkscape-font-specification:Calibri;
	fill:#424242;
	font-family:Calibri;
	font-size:40;
	letter-spacing:0;
	line-height:125;
	word-spacing:0;
}

</style>  <defs id="defs4328"/>
  <metadata id="metadata4331">
    <rdf:RDF>
      <cc:Work rdf:about="">
        <dc:format>
          image/svg+xml
        </dc:format>
        <dc:type rdf:resource="http://purl.org/dc/dcmitype/StillImage"/>
      </cc:Work>
    </rdf:RDF>
  </metadata>
      <g id="g5029">
        <g id="g4938">
          <path id="path3466" d="m466.806 265.802q0 0.673-0.148 0.938-0.13 0.285-0.389 0.285l-4.74 0q-0.222 0-0.426-0.081-0.204-0.062-0.37-0.224-0.167-0.163-0.278-0.448-0.093-0.265-0.093-0.673l0-32.186q0-0.387 0.093-0.652 0.111-0.285 0.278-0.448 0.167-0.183 0.37-0.245 0.204-0.081 0.426-0.081l4.74 0q0.111 0 0.204 0.062 0.111 0.062 0.185 0.224 0.074 0.163 0.111 0.408 0.037 0.224 0.037 0.571 0 0.652-0.148 0.938-0.13 0.285-0.389 0.285l-3.018 0 0 30.087 3.018 0q0.111 0 0.204 0.062 0.111 0.062 0.185 0.204 0.074 0.163 0.111 0.387 0.037 0.245 0.037 0.591z" class="s0"/>
          <path id="path3468" d="m487.007 238.456q0 0.591-0.056 1.019-0.037 0.408-0.13 0.673-0.093 0.245-0.241 0.367-0.13 0.122-0.296 0.122l-5.999 0 0 21.261q0 0.204-0.13 0.367-0.111 0.163-0.389 0.265-0.278 0.102-0.759 0.163-0.463 0.062-1.167 0.062-0.704 0-1.185-0.062-0.463-0.062-0.741-0.163-0.278-0.102-0.407-0.265-0.111-0.163-0.111-0.367l0-21.261-5.999 0q-0.185 0-0.315-0.122-0.13-0.122-0.222-0.367-0.092-0.265-0.148-0.673-0.037-0.428-0.037-1.019 0-0.611 0.037-1.04 0.056-0.428 0.148-0.673 0.093-0.265 0.222-0.367 0.13-0.122 0.315-0.122l16.887 0q0.167 0 0.296 0.122 0.148 0.102 0.241 0.367 0.093 0.245 0.13 0.673 0.056 0.428 0.056 1.04z" style="fill:#424242;font-family:sans-serif;font-size:40;font-weight:bold;letter-spacing:0;line-height:125;word-spacing:0"/>
          <path id="path3470" d="m495.377 265.599q0 0.408-0.111 0.673-0.093 0.286-0.259 0.449-0.167 0.163-0.389 0.224-0.204 0.081-0.426 0.081l-4.722 0q-0.259 0-0.407-0.285-0.13-0.265-0.13-0.938 0-0.346 0.019-0.591 0.037-0.224 0.111-0.387 0.074-0.143 0.167-0.204 0.111-0.062 0.241-0.062l3.018 0 0-30.087-3.018 0q-0.259 0-0.407-0.285-0.13-0.285-0.13-0.938 0-0.346 0.019-0.571 0.037-0.245 0.111-0.408 0.074-0.163 0.167-0.224 0.111-0.061 0.241-0.061l4.722 0q0.222 0 0.426 0.081 0.222 0.062 0.389 0.245 0.167 0.163 0.259 0.449 0.111 0.265 0.111 0.652l0 32.186z" class="s0"/>
          <path id="path3472" d="m502.5 242.452q0 0.652-0.093 1.101-0.074 0.448-0.315 0.734-0.222 0.265-0.593 0.387-0.37 0.102-0.944 0.102-0.593 0-0.963-0.102-0.37-0.122-0.593-0.387-0.222-0.285-0.315-0.734-0.074-0.448-0.074-1.101 0-0.693 0.074-1.141 0.093-0.469 0.315-0.734 0.222-0.285 0.593-0.387 0.37-0.122 0.963-0.122 0.574 0 0.944 0.122 0.37 0.102 0.593 0.387 0.241 0.265 0.315 0.734 0.093 0.448 0.093 1.142zm0 14.147q0 0.673-0.093 1.121-0.074 0.448-0.315 0.734-0.222 0.265-0.593 0.367-0.37 0.122-0.944 0.122-0.593 0-0.963-0.122-0.37-0.102-0.593-0.367-0.222-0.285-0.315-0.734-0.074-0.448-0.074-1.121 0-0.673 0.074-1.121 0.093-0.469 0.315-0.734 0.222-0.265 0.593-0.387 0.37-0.122 0.963-0.122 0.574 0 0.944 0.122 0.37 0.122 0.593 0.387 0.241 0.265 0.315 0.734 0.093 0.448 0.093 1.121z" class="s0"/>
        </g>
      </g>
</svg>
