<?xml version="1.0" encoding="UTF-8" standalone="no"?>
<svg
   version="1.1"
   id="svg2"
   xml:space="preserve"
   width="378"
   height="318.11401"
   viewBox="0 0 378 318.11402"
   sodipodi:docname="LaVI.svg"
   inkscape:version="1.1.1 (c3084ef, 2021-09-22)"
   inkscape:export-filename="/Users/normundsg/Projects/github/Tezaurs.lv/dictviewer2/app/public/img/LaVI.png"
   inkscape:export-xdpi="13.580037"
   inkscape:export-ydpi="13.580037"
   xmlns:inkscape="http://www.inkscape.org/namespaces/inkscape"
   xmlns:sodipodi="http://sodipodi.sourceforge.net/DTD/sodipodi-0.dtd"
   xmlns="http://www.w3.org/2000/svg"
   xmlns:svg="http://www.w3.org/2000/svg"
   xmlns:rdf="http://www.w3.org/1999/02/22-rdf-syntax-ns#"
   xmlns:cc="http://creativecommons.org/ns#"
   xmlns:dc="http://purl.org/dc/elements/1.1/"><metadata
     id="metadata8"><rdf:RDF><cc:Work
         rdf:about=""><dc:format>image/svg+xml</dc:format><dc:type
           rdf:resource="http://purl.org/dc/dcmitype/StillImage" /></cc:Work></rdf:RDF></metadata><defs
     id="defs6" /><sodipodi:namedview
     pagecolor="#ffffff"
     bordercolor="#666666"
     borderopacity="1"
     objecttolerance="10"
     gridtolerance="10"
     guidetolerance="10"
     inkscape:pageopacity="0"
     inkscape:pageshadow="2"
     inkscape:window-width="1726"
     inkscape:window-height="1067"
     id="namedview4"
     inkscape:pagecheckerboard="0"
     showgrid="false"
     inkscape:showpageshadow="false"
     height="318.114px"
     inkscape:zoom="2.2562762"
     inkscape:cx="189.24988"
     inkscape:cy="159.33333"
     inkscape:window-x="66"
     inkscape:window-y="25"
     inkscape:window-maximized="1"
     inkscape:current-layer="g10" /><g
     id="g10"
     inkscape:groupmode="layer"
     inkscape:label="ink_ext_XXXXXX"
     transform="matrix(1.3333333,0,0,-1.3333333,0,318.66667)"><g
       id="g12"
       transform="matrix(0.10019811,0,0,0.10019811,-0.55461255,0.07261229)"><path
         d="M 652.805,13.5391 644.848,3.41016 C 625.711,19.9648 610.586,32.6133 599.477,41.3438 588.164,50.2344 572.703,61.625 553.09,75.5234 l 7.961,10.1289 c 18.25,-9.7226 28.414,-14.746 30.433,-15.0468 3.567,-0.3008 7.856,2.7773 12.903,9.1992 l 28.226,34.9333 89.871,114.367 -42.656,33.516 c -7.047,5.539 -12.152,8.641 -15.344,9.406 -4.445,0.989 -9.722,0.586 -15.839,-1.054 -6.118,-1.715 -18.707,-6.914 -37.688,-15.66 l -10.555,8.292 c 18.52,12.829 37.504,26.84 58.368,43.137 25.335,-21.097 50.781,-42.39 77.898,-61.816 20.766,-14.875 44.383,-28.461 64.215,-41.59 l -8.492,-11.273 c -16.246,7.609 -27.832,7.531 -30.184,7.414 -2.273,-0.11 -4.883,-1.622 -7.82,-4.625 -2.903,-2.954 -20.344,-24.821 -52.324,-65.52 L 662.746,79.3047 655.852,70.5352 C 644.32,55.8594 637.828,46.6992 636.379,43.1367 c -1.094,-2.707 -1.274,-5.0664 -0.426,-7.1015 0.817,-2.0782 6.469,-9.5547 16.852,-22.4961 z M 2653.32,1245.69 l 24.36,1.35 6.12,-110.84 -24.35,-1.34 z m -2640.6442,-66.33 -7.14064,10.17 23.04684,54.29 -15.6875,55.25 6.8321,6.07 34.9843,-64.94 z M 2491.2,677.781 l 4.07,14.324 c 22.28,-2.957 38.04,-2.269 47.14,2.043 9.1,4.317 15.22,11.895 18.33,22.86 2.78,9.793 1.96,18.242 -2.51,25.461 -4.41,7.152 -11.32,12.062 -20.61,14.699 -8.27,2.348 -16.5,1.945 -24.64,-1.164 -8.26,-3.129 -20.16,-12.707 -35.62,-28.746 -15.41,-16.051 -29.84,-26.274 -43.16,-30.602 -13.49,-4.277 -28.56,-4.054 -45.25,0.688 -20.14,5.715 -35.98,17.164 -47.51,34.394 -11.55,17.18 -13.22,40.137 -5.06,68.883 2.92,10.281 6.6,19.719 10.96,28.324 3.19,6.629 8.2,14.469 15.03,23.645 19.2,-7.246 38.41,-13.598 57.52,-19.024 l 11.24,-3.191 -4.07,-14.328 c -23.26,2.766 -39.38,2.555 -48.41,-0.625 -12.15,-4.133 -20.03,-12.477 -23.6,-25.047 -2.82,-9.941 -1.55,-18.996 3.81,-26.988 5.34,-8.047 13.54,-13.641 24.5,-16.754 6.94,-1.969 13.5,-2.461 19.59,-1.508 6.12,1 12.06,3.367 17.83,7.102 5.77,3.73 14.12,11.101 25.02,22.171 16.94,16.883 31.6,27.25 43.98,31.11 12.26,3.887 25.4,3.844 39.39,-0.133 20.65,-5.859 35.91,-17.195 45.84,-33.973 9.91,-16.82 11.38,-37.402 4.47,-61.765 -4.6,-16.18 -13.19,-32.692 -25.86,-49.578 -17.5,5.39 -29.67,9.054 -36.49,10.992 -7.97,2.265 -16.64,4.515 -25.93,6.73 z m 44.76,167.848 1.74,13.668 c 25.3,3.676 39.66,6.039 43.11,7.183 3.45,1.094 6.03,2.911 7.68,5.512 1.71,2.59 3.46,11.199 5.33,25.922 l 1.82,14.274 -161.92,20.57 c -20.12,2.555 -32.32,3.492 -36.67,2.871 -2.26,-0.324 -4.22,-1.508 -5.82,-3.652 -1.64,-2.09 -5.02,-10.645 -10.22,-25.61 l -12.78,1.621 c 4.98,29.75 8.01,48.871 9.09,57.36 1.47,11.558 3.13,29.32 4.97,53.292 l 12.78,-1.63 c 1.25,-16.13 2.61,-25.807 4.07,-28.955 1,-2.117 2.95,-3.746 5.82,-4.871 2.86,-1.133 14.88,-3.016 36.18,-5.723 l 160.2,-20.356 3.15,24.774 c 1.06,8.34 0.94,13.973 -0.32,16.887 -1.32,2.874 -3.92,5.504 -8.02,7.814 -6.17,3.49 -18.71,8.86 -37.69,16.17 l 1.71,13.42 c 16.82,-3.87 28.4,-6.42 34.86,-7.65 6.46,-1.23 19,-3.28 37.69,-6.16 -6.12,-38.696 -11.41,-76.571 -15.95,-113.676 -3.63,-31.399 -6.02,-54.024 -7.11,-67.829 -22.37,2.743 -46.94,4.333 -73.7,4.774 z m 69.6,468.261 12.85,0.98 c 0.56,-23.17 1.38,-41.7 2.43,-55.59 1.05,-13.89 3.04,-32.13 5.95,-54.71 l -12.84,-0.98 c -3.89,14.23 -6.96,23.09 -9.2,26.58 -1.37,2.28 -3.15,3.72 -5.41,4.36 -2.99,0.74 -10.7,0.66 -23.13,-0.29 l -89.25,-6.78 c -23.02,-1.75 -38.58,-4 -46.67,-6.8 -10.74,-3.61 -19.07,-9.58 -25.13,-17.96 -6,-8.38 -8.48,-19.8 -7.39,-34.2 1.2,-15.86 5.92,-27.54 14.15,-35.04 8.22,-7.5 18.66,-11.89 31.27,-13.26 12.6,-1.38 34.04,-0.92 64.25,1.37 6.95,0.54 26.61,2.44 58.84,5.65 17.86,1.87 28.33,3.42 31.4,4.62 1.8,0.75 3.15,1.92 4.11,3.46 1.34,1.99 2.87,8.55 4.48,19.7 0.2,1.29 0.53,3.24 0.93,5.86 l 12.84,0.98 c 0.4,-20.9 0.92,-35.75 1.59,-44.43 0.78,-10.25 2.4,-23.64 4.84,-40.12 l -12.84,-0.98 c -4.41,14.75 -7.69,23.24 -9.83,25.46 -2.15,2.23 -5.16,3.43 -9.07,3.63 -6.55,0.37 -36.21,-1.27 -88.85,-4.97 -30.23,-2.1 -50.14,-2.95 -59.61,-2.61 -13.04,0.69 -23.7,2.57 -32.07,5.69 -8.37,3.08 -16.28,7.91 -23.66,14.56 -7.44,6.6 -13.04,14.14 -16.79,22.6 -4.97,11.1 -7.93,23.17 -8.91,36.21 -1.68,21.96 0.75,39.72 7.25,53.22 6.51,13.5 15.64,23.24 27.45,29.21 11.74,6.03 29.33,9.9 52.7,11.68 l 107.74,8.2 c 13.8,1.04 22.5,2.31 26.03,3.75 2.25,1.09 3.87,2.73 4.88,5.04 0.97,2.32 2.52,10.97 4.67,25.91 z m -70.52,28.8 -3.77,13.26 c 21.83,13.3 34.12,21.1 36.85,23.51 2.74,2.36 4.39,5.04 4.89,8.08 0.56,3.05 -1.2,11.66 -5.26,25.94 l -3.93,13.84 -157.01,-44.59 c -19.51,-5.54 -31.1,-9.46 -34.85,-11.74 -1.96,-1.19 -3.3,-3.04 -3.92,-5.64 -0.7,-2.56 -0.44,-11.76 0.64,-27.57 l -12.39,-3.52 c -7.09,29.32 -11.8,48.1 -14.14,56.33 -3.18,11.21 -8.63,28.2 -16.33,50.97 l 12.39,3.52 c 7.49,-14.36 12.53,-22.72 15.11,-25.04 1.74,-1.56 4.18,-2.29 7.25,-2.21 3.08,0.09 14.88,3.07 35.54,8.94 l 155.34,44.11 -6.82,24.02 c -2.29,8.09 -4.61,13.22 -6.92,15.41 -2.33,2.13 -5.76,3.52 -10.44,4.04 -7.04,0.79 -20.69,0.81 -41,0.1 l -3.7,13 c 16.99,3.04 28.64,5.24 35.06,6.64 6.42,1.41 18.77,4.44 37.09,9.12 9.55,-38 19.54,-74.91 29.92,-110.82 8.98,-30.31 15.65,-52.06 20.06,-65.18 -21.66,-6.26 -44.88,-14.43 -69.66,-24.52 z m 2.72,241.87 -11.74,-5.31 -3.23,4.55 c -7.04,11.1 -12.4,17.29 -16.02,18.49 -3.61,1.2 -9.1,0.17 -16.44,-3.15 l -5.71,-2.58 -53.55,-23.55 -60.84,-27.84 -30.91,-14.3 c -9.12,-4.13 -14.67,-7.07 -16.65,-8.92 -2,-1.79 -3.19,-3.94 -3.5,-6.31 -0.55,-4.14 0.5,-11.67 3.11,-22.5 0.28,-1.2 0.7,-3.01 1.27,-5.42 l -11.74,-5.31 c -7.25,18.95 -14.06,35.45 -20.4,49.47 -6.01,13.3 -14.52,30.68 -25.54,52.16 l 11.74,5.31 c 9.43,-12.63 14.75,-19.46 16,-20.49 1.87,-1.67 3.99,-2.6 6.26,-2.85 3.08,-0.28 8.39,1.29 15.98,4.61 17.78,7.59 47.91,20.99 90.29,40.15 l 57.66,27.07 4.78,2.16 c 8.48,3.84 13.51,7.33 15.02,10.52 1.5,3.18 0.72,11.27 -2.33,24.24 -0.33,1.46 -0.77,3.59 -1.32,6.4 l 11.74,5.31 c 9.39,-23.66 16.71,-41.31 21.93,-52.84 5.59,-12.38 13.62,-28.7 24.14,-49.07 z m -125.51,96.4 -7.43,11.59 c 17.04,19.05 26.54,30.08 28.46,33.17 1.94,3.05 2.76,6.1 2.35,9.15 -0.34,3.09 -4.52,10.82 -12.53,23.31 l -7.76,12.11 -137.42,-88.08 c -17.07,-10.95 -27.03,-18.06 -29.97,-21.32 -1.52,-1.7 -2.27,-3.86 -2.11,-6.53 0.07,-2.66 2.97,-11.39 8.58,-26.21 l -10.85,-6.95 c -15.26,26.01 -25.2,42.62 -29.82,49.83 -6.28,9.81 -16.41,24.5 -30.37,44.07 l 10.84,6.95 c 11.32,-11.58 18.57,-18.12 21.71,-19.6 2.12,-0.99 4.66,-0.98 7.59,-0.01 2.91,0.97 13.35,7.23 31.42,18.82 l 135.96,87.15 -13.48,21.03 c -4.54,7.08 -8.25,11.32 -11.08,12.75 -2.85,1.36 -6.54,1.7 -11.17,0.85 -6.97,-1.29 -20.04,-5.21 -39.28,-11.77 l -7.3,11.39 c 15.39,7.82 25.91,13.29 31.65,16.49 5.74,3.2 16.68,9.67 32.87,19.45 20.13,-33.61 40.36,-66.06 60.69,-97.44 17.36,-26.41 30.03,-45.3 38.04,-56.59 -18.92,-12.25 -38.78,-26.79 -59.59,-43.61 z m -124.17,183.18 -10.28,11.37 c 13.87,16.9 21.28,30.4 22.18,40.38 0.9,9.98 -2.52,19.3 -10.38,27.99 -7.03,7.77 -14.73,11.79 -23.21,12.09 -8.4,0.3 -16.14,-2.72 -23.14,-8.99 -6.21,-5.57 -10.05,-12.65 -11.5,-21.16 -1.5,-8.62 0.71,-23.86 6.68,-45.66 6,-21.77 7.48,-39.48 4.45,-52.98 -3.17,-13.61 -11.01,-26.03 -23.57,-37.29 -15.15,-13.58 -33.06,-20.4 -53.76,-20.41 -20.66,-0.05 -41.28,11.34 -61.91,34.14 -7.37,8.15 -13.64,16.47 -18.83,24.89 -4.1,6.34 -8.3,14.88 -12.74,25.67 15.99,11.96 31.22,24.42 45.59,37.31 l 8.46,7.58 10.27,-11.36 c -14.19,-17.83 -22.19,-31.37 -24.03,-40.66 -2.61,-12.41 0.57,-23.62 9.59,-33.59 7.13,-7.89 15.57,-11.87 25.18,-11.86 9.65,-0.03 18.63,3.69 26.87,11.08 5.23,4.68 8.98,9.86 11.25,15.47 2.25,5.65 3.23,11.91 2.94,18.8 -0.28,6.88 -2.39,17.94 -6.39,33.18 -5.95,23.5 -7.44,41.48 -4.48,53.93 2.88,12.38 9.59,23.29 20.12,32.73 15.54,13.93 33.05,20.32 52.54,19.26 19.53,-1.12 38,-11.35 55.48,-30.67 11.61,-12.83 21.47,-29.18 29.58,-49.13 -13.53,-11.57 -22.86,-19.66 -28,-24.27 -5.99,-5.38 -12.33,-11.34 -18.96,-17.84 z m -273.29,325.61 7.8,10.34 c 10.09,-9.04 19.77,-17.04 29.08,-24.01 9.35,-7 20.76,-14.79 34.19,-23.34 -2.02,-22.61 -5.22,-86.89 -9.57,-192.79 l 57.32,77.11 c 13.7,19.03 20.93,29.88 21.71,32.59 0.74,2.74 0.63,5.45 -0.4,8.01 -0.95,2.59 -6.49,9.13 -16.49,19.55 l 7.79,10.34 c 11.94,-10.43 22.58,-19.16 32.02,-26.22 9.11,-6.81 21.09,-15.03 35.96,-24.67 l -7.79,-10.34 c -2.86,1.23 -4.95,2.21 -6.23,2.93 -10.58,5.23 -17.47,7.54 -20.76,6.86 -3.33,-0.66 -7.52,-4.04 -12.57,-10.07 -10.53,-12.65 -31.16,-39.38 -61.9,-80.19 -19.77,-26.26 -42,-56.44 -66.75,-90.65 -4.64,1.38 -9.43,2.56 -14.31,3.44 l 6.03,101.19 6.47,150.68 -50.02,-67.43 -48.14,-65.93 c -3.48,-5.11 -5.38,-8.48 -5.79,-10.12 -0.42,-1.71 -0.37,-3.32 0.07,-4.85 0.87,-2.52 5.21,-8.39 13.13,-17.54 0.95,-1.09 2.25,-2.8 3.92,-5.19 l -7.79,-10.34 c -51.15,44.23 -98.4,68.33 -160.2,96.23 l 5.87,11.46 c 15.26,-3.99 23.67,-6.02 25.3,-6.06 2.49,-0.13 4.73,0.46 6.66,1.68 2.58,1.7 5.76,6.24 9.62,13.57 9.17,17.01 24.38,46.27 45.59,87.67 l 28.22,57.11 2.39,4.67 c 4.24,8.28 6,14.15 5.19,17.58 -0.8,3.43 -6.45,9.27 -16.92,17.51 -1.17,0.93 -2.85,2.33 -5.03,4.18 l 5.87,11.47 c 22.09,-12.66 38.81,-21.89 50.08,-27.67 12.09,-6.18 28.54,-13.94 49.47,-23.32 l -5.88,-11.46 -5.36,1.54 c -12.43,4.28 -20.47,5.8 -24.05,4.48 -3.57,-1.32 -7.22,-5.55 -10.89,-12.72 l -2.85,-5.57 -27.22,-51.79 -30.22,-59.69 -15.26,-30.45 c -4.56,-8.92 -7.06,-14.68 -7.46,-17.35 -0.45,-2.65 -0.03,-5.07 1.19,-7.11 6.22,-10.35 30.77,-25.42 41.63,-24.25 1.92,0.21 3.8,1.12 5.74,2.68 1.92,1.55 12.87,15.08 32.95,40.57 29.1,36.88 53.78,68.74 73.99,95.57 6.74,8.96 10.71,15.06 11.74,18.18 1.1,3.14 1.13,6.2 0.04,9.18 -1.02,3.01 -5.15,8.65 -12.33,16.95 -1.12,1.29 -2.77,3.19 -4.85,5.8 z m -351.43,80.64 -14.68,3.35 c 0.71,22.4 -1.54,38.1 -6.75,46.97 -5.22,8.88 -13.38,14.61 -24.62,17.18 -10.03,2.28 -18.37,1.04 -25.11,-3.78 -6.68,-4.76 -10.88,-11.91 -12.58,-21.32 -1.51,-8.37 -0.28,-16.58 3.63,-24.55 3.95,-8.1 14.68,-19.5 32.2,-34.15 17.54,-14.59 29.18,-28.49 34.82,-41.57 5.61,-13.27 6.9,-28.32 3.85,-45.23 -3.68,-20.4 -13.5,-36.79 -29.51,-49.17 -15.95,-12.39 -38.66,-15.2 -68.12,-8.48 -10.53,2.4 -20.3,5.6 -29.31,9.53 -6.92,2.85 -15.24,7.47 -25.06,13.83 5.29,19.54 9.7,39.04 13.19,58.39 l 2.05,11.4 14.68,-3.36 c -0.42,-23.37 1.4,-39.46 5.47,-48.31 5.34,-11.93 14.44,-19.39 27.32,-22.33 10.19,-2.32 19.08,-0.6 26.51,5.15 7.48,5.73 12.23,14.21 14.23,25.31 1.27,7.03 1.1,13.6 -0.46,19.64 -1.61,6.06 -4.56,11.87 -8.86,17.45 -4.29,5.58 -12.47,13.55 -24.59,23.88 -18.52,16.08 -30.32,30.21 -35.4,42.38 -5.1,12.06 -6.38,25.17 -3.82,39.35 3.77,20.92 13.54,36.72 29.25,47.48 15.77,10.73 36.13,13.23 61.09,7.53 16.58,-3.78 33.89,-11.54 51.99,-23.35 -3.62,-17.75 -6.06,-30.08 -7.3,-37 -1.46,-8.07 -2.83,-16.84 -4.11,-26.22 z m -267.79,-134.16 0.07,11.32 c 11.94,1.14 23.81,-2.79 23.9,8.19 0.01,1.61 -0.28,3.47 -0.83,5.63 -1.58,4.95 -6.6,19.8 -15.1,44.56 -13.9,0.81 -25.47,1.4 -34.7,1.78 -7.61,0.31 -20.25,0.71 -37.96,1.2 -11.38,-30.01 -17.08,-46.51 -17.1,-49.42 -0.03,-2.8 0.76,-4.87 2.33,-6.29 1.55,-1.39 10.87,-3.44 21.04,-3.4 l -0.08,-11.33 c -26.31,-0.9 -56.76,-1.29 -73.41,-2.17 l 0.09,12.86 c 8.95,1.83 15.11,4.08 18.48,6.74 2.29,1.75 4.4,4.46 6.3,8.14 3.91,7.16 15.69,35.07 35.22,83.74 12.41,30.81 30.15,76.39 53.17,136.77 l 11.87,-0.49 c 9.04,-27.7 27.75,-79.54 56.18,-155.42 15.78,-42.21 25.2,-66.17 28.36,-72.01 2.1,-4.08 4.26,-6.96 6.38,-8.66 2.12,-1.69 8.9,-4.53 20.29,-8.51 l -0.09,-12.85 c -32.27,5.26 -72.97,8.16 -104.41,9.62 z m -26.94,173.11 -30.48,-80.72 29.03,-1.19 c 6.95,-0.29 16.89,-0.7 29.88,-1.23 z m -346.21,26.96 -2.19,12.96 c 22.93,1.72 41.88,3.54 56.72,5.44 11.29,1.44 26.94,3.74 46.87,6.95 14.45,2.39 26.54,4.24 36.33,5.49 18.35,2.34 33.37,1.41 45.05,-2.77 16.14,-5.74 29.77,-15.97 40.91,-30.74 11.13,-14.77 18.86,-34.76 23.14,-59.97 4.75,-27.98 3.47,-53.59 -3.88,-76.77 -7.34,-23.24 -19.99,-42.26 -37.91,-57.06 -15,-12.43 -34.36,-20.17 -58.2,-23.21 -2.25,-0.28 -11.4,-1.15 -27.39,-2.59 -16.04,-1.45 -25.04,-2.29 -26.98,-2.54 -6.85,-0.88 -24.44,-3.73 -52.88,-8.57 l -2.18,12.84 6.02,2.16 c 12.54,4.32 19.72,7.77 21.53,10.36 1.85,2.6 2.57,6.19 2.21,10.74 -0.75,6.8 -6.5,41.9 -17.27,105.38 -7.91,46.62 -12.76,72.84 -14.57,78.65 -1.18,4.02 -2.93,6.76 -5.2,8.4 -2.26,1.59 -10.14,2.93 -23.66,4.05 z m 114.49,-199.94 c 12.18,-0.8 22.28,-0.72 30.28,0.3 22.44,2.87 38.04,12.9 46.78,30.04 11.13,21.97 13.43,52.06 6.94,90.34 -5.57,32.84 -16.23,56.85 -31.96,72.19 -12.8,12.57 -30.32,17.4 -52.55,14.57 -9.35,-1.2 -20.52,-3.71 -33.4,-7.54 2.06,-18.17 7.23,-51.66 15.53,-100.58 4.77,-28.1 10.9,-61.23 18.38,-99.32 z m -321.992,-1.16 c -16.074,37.23 -19.52,71 -10.246,101.37 9.262,30.34 29.949,51.95 62.027,64.78 30.266,12.11 58.43,11.38 84.508,-2.16 26.07,-13.54 48.402,-37.45 63.213,-71.74 9.42,-21.8 14.59,-42.97 15.5,-63.62 0.79,-16.34 -0.9,-31.07 -5.18,-44.24 -4.23,-13.14 -9.78,-23.88 -16.63,-32.22 -10.184,-12.34 -24.571,-22.26 -43.235,-29.73 -31.008,-12.41 -59.449,-11.77 -85.367,1.88 -25.957,13.67 -48.703,38.9 -64.59,75.68 z m 100.625,-52.22 c 14.867,-10.3 30.574,-12.16 47.145,-5.53 11.417,4.57 19.492,11.97 24.253,22.14 4.801,10.18 5.762,23.84 2.95,40.94 -6.684,40.47 -36.438,104.31 -66.786,130.43 -7.57,6.52 -15.859,10.9 -24.843,13.16 -8.977,2.26 -18.321,1.45 -28.024,-2.44 -10.769,-4.3 -18.824,-11.76 -24.113,-22.33 -5.281,-10.58 -6.707,-24.42 -4.246,-41.6 6.355,-44.34 37.008,-109.36 73.664,-134.77 z m -344.043,29.46 -6.953,10.85 c 21.922,12.64 38.836,22.76 50.73,30.39 12.11,7.77 27.95,18.63 47.52,32.59 l 6.953,-10.84 c -15.18,-14.05 -23.266,-22 -24.211,-23.81 -1.453,-3.27 0.047,-8.32 4.457,-15.21 l 23.719,-38.13 78.496,-122.45 45.672,29.28 c 7.551,4.84 12.148,8.63 13.926,11.4 2.394,3.87 3.746,8.99 4.211,15.31 0.382,6.34 -0.391,19.94 -2.415,40.74 l 11.301,7.24 c 6.032,-21.7 13.317,-45.08 21.86,-70.14 -85.504,-51.45 -154.43,-89.43 -223.411,-165.09 l -8.886,9 c 6.957,10.43 12.144,15.28 12.371,17.79 0.223,2.47 -0.578,4.69 -2.555,6.7 -1.113,1.12 -2.609,2.2 -4.492,3.3 -4.547,2.26 -18.375,8.85 -41.516,19.75 -10.207,-9.77 -18.652,-17.95 -25.32,-24.55 -5.5,-5.44 -14.547,-14.56 -27.176,-27.37 13,-29.33 20.532,-45.03 22.547,-47.08 1.934,-1.96 3.926,-2.82 6.004,-2.63 2.043,0.18 9.129,5.1 17.34,12.9 l 8.887,-9.01 c -13.301,-10.92 -39.012,-40.57 -50.856,-54.62 l -8.89,9.01 c 4.933,7.93 7.64,14.06 8.125,18.42 0.375,2.92 -0.055,6.37 -1.293,10.34 -2.274,7.88 -13.547,36.03 -33.883,84.39 -12.844,30.63 -32.285,75.51 -58.36,134.59 l 8.578,8.48 c 25.563,-12.53 74.653,-34.68 147.231,-66.3 40.348,-17.61 63.566,-27.27 69.828,-28.98 4.301,-1.27 7.809,-1.67 10.461,-1.27 12.68,1.89 36.379,19.18 39.688,30.61 0.64,2.18 0.07,5.15 -1.801,8.91 -1.836,3.71 -16.758,27.36 -44.699,70.94 l -34.336,53.57 -6.02,9.39 c -10.074,15.71 -16.594,24.85 -19.484,27.39 -2.196,1.92 -4.368,2.87 -6.567,2.73 -2.23,-0.08 -11.152,-2.97 -26.781,-8.53 z M 481.98,1947 l 35.067,-78.77 20.973,20.74 c 5.023,4.98 12.207,12.08 21.593,21.36 z m -236.777,-185.2 -10.5,7.46 c 17,21.85 27.973,36.25 32.84,43.09 6.508,9.16 15.719,23.14 27.578,41.86 l 10.496,-7.46 c -4.238,-12.03 -6.195,-19.22 -5.887,-21.55 0.309,-2.32 1.547,-4.33 3.625,-5.81 1.985,-1.41 5.317,-2.79 9.942,-4.33 l 132.633,-44.41 -49.621,79.94 -32.625,41.29 c -1.02,1.29 -2.254,2.29 -3.368,3.08 -2.187,1.55 -4.695,1.82 -7.531,0.63 -0.621,-0.27 -6.461,-4.36 -17.555,-12.14 l -10.542,7.51 c 10.277,12.39 18.015,22.24 23.238,29.59 4.754,6.68 11.226,16.81 19.387,30.34 l 10.492,-7.46 c -3.563,-9.65 -5.086,-16.6 -4.742,-20.87 0.195,-2.38 1.117,-5.22 2.945,-8.31 1.859,-3.14 18.871,-27.06 51.183,-71.58 22.786,-31.39 45.789,-76.71 82.266,-125.03 l -8.102,-11.4 -141.14,44.38 c -51.617,16.22 -80.43,23.88 -85.66,24.74 -2.942,0.48 -6.246,0.35 -8.707,-0.27 -3.508,-0.89 -10.364,-5.31 -20.645,-13.29 z m -153.6327,-403.69 -12.2031,4.13 c 8.5469,21.54 15.0547,38.91 19.5195,52.11 4.4653,13.19 9.7773,30.75 15.9373,52.67 l 12.203,-4.12 c -1.988,-14.62 -2.589,-23.97 -1.941,-28.06 0.418,-2.63 1.422,-4.7 3.277,-6.13 2.434,-1.89 9.582,-4.8 21.387,-8.8 l 80.313,-27.17 c 21.855,-7.4 37.066,-11.38 45.609,-12.01 11.289,-0.84 21.297,1.35 30.156,6.69 8.801,5.36 15.555,14.9 20.18,28.57 5.101,15.07 5.328,27.66 0.699,37.79 -4.633,10.12 -12.523,18.24 -23.582,24.45 -11.062,6.2 -30.965,14.16 -59.664,23.88 -6.609,2.23 -20.941,6.71 -51.871,16.32 -17.149,5.32 -27.41,7.96 -30.715,8.04 -1.941,0.04 -3.617,-0.57 -5.125,-1.58 -1.996,-1.34 -5.988,-6.75 -11.84,-16.37 -0.676,-1.11 -1.758,-2.77 -3.148,-5.03 l -12.203,4.13 c 7.82,19.38 13.144,33.26 15.937,41.5 3.293,9.74 7.047,22.7 11.242,38.81 l 12.203,-4.12 c -1.714,-15.31 -2.023,-24.4 -0.921,-27.28 1.097,-2.89 3.414,-5.17 6.925,-6.89 5.879,-2.9 29.344,-11.46 79.235,-28.69 28.633,-9.88 47.285,-16.91 55.867,-20.93 11.726,-5.74 20.808,-11.64 27.285,-17.79 6.5,-6.1 11.879,-13.65 16.074,-22.66 4.262,-8.98 6.457,-18.12 6.602,-27.37 0.226,-12.16 -1.778,-24.42 -5.969,-36.8 -7.062,-20.87 -16.238,-36.27 -27.512,-46.14 -11.273,-9.88 -23.492,-15.23 -36.691,-16.14 -13.164,-0.92 -30.863,2.37 -53.063,9.88 l -97.878,33.13 c -13.11,4.43 -21.606,6.76 -25.422,6.72 -2.5,-0.02 -4.641,-0.98 -6.465,-2.72 -1.809,-1.74 -6.6096,-9.11 -14.4377,-22.02 z m 54.2267,-58.43 -1.875,-14.88 c -22.477,-1.57 -37.949,-5.41 -46.3009,-11.48 -8.3477,-6.06 -13.2656,-14.73 -14.7031,-26.11 -1.2813,-10.17 0.8008,-18.29 6.289,-24.47 5.4375,-6.13 13.008,-9.55 22.59,-10.28 8.519,-0.64 16.601,1.42 24.183,6.11 7.704,4.73 18.028,16.51 30.918,35.36 12.832,18.84 25.571,31.77 38.09,38.7 12.696,6.91 27.621,9.72 44.836,8.42 20.77,-1.55 38.145,-9.6 52.133,-24.18 13.992,-14.53 19.074,-36.71 15.309,-66.55 -1.348,-10.68 -3.567,-20.67 -6.594,-29.99 -2.152,-7.14 -5.942,-15.85 -11.313,-26.21 -20.074,3.24 -40.019,5.6 -59.718,7.08 l -11.594,0.87 1.875,14.88 c 23.422,1.96 39.328,5.42 47.766,10.35 11.394,6.49 17.941,16.27 19.589,29.31 1.305,10.32 -1.312,18.94 -7.808,25.71 -6.481,6.82 -15.434,10.66 -26.731,11.5 -7.16,0.54 -13.715,-0.29 -19.601,-2.46 -5.891,-2.21 -11.414,-5.72 -16.559,-10.54 -5.152,-4.82 -12.305,-13.74 -21.418,-26.78 -14.226,-19.97 -27.168,-33.09 -38.828,-39.36 -11.543,-6.29 -24.531,-8.89 -38.969,-7.8 -21.297,1.6 -38.0778,9.64 -50.406,24.1 -12.3242,14.51 -16.8593,34.4 -13.6679,59.7 2.1172,16.79 8.1484,34.72 18.1445,53.83 18.1094,-1.77 30.6834,-2.92 37.7264,-3.45 8.223,-0.61 17.121,-1.08 26.637,-1.38 z M 79.4023,933.035 66.5234,932.707 c 0.5899,23.879 0.5313,49.82 -0.1757,77.773 -0.8243,32.46 -2.2618,65.86 -4.3282,100.27 24.4375,0.91 45.6285,2.77 63.5745,5.55 l 0.32,-12.71 c -3.668,-1.26 -6.504,-2.19 -8.465,-2.75 -16.508,-5.33 -26.0662,-9.37 -28.6795,-12.22 -2.6093,-2.9 -3.7656,-9.16 -3.5195,-18.94 l 1.4453,-57.11 c 19.6327,-0.22 48.1407,0.05 85.5237,0.79 l -0.297,25.98 c -0.344,13.53 -2.106,21.84 -5.281,24.9 -3.121,3.06 -13.578,6.09 -31.375,9.14 l -0.317,12.46 c 17.137,-0.59 32.235,-0.71 45.293,-0.38 12.457,0.32 28,1.22 46.641,2.7 l 0.312,-12.46 c -18.707,-3.26 -29.371,-6.21 -32.109,-8.86 -2.734,-2.66 -3.906,-10.54 -3.578,-23.55 l 0.738,-29.27 96.438,2.44 c -1.868,54.45 -4.477,67.66 -7.184,73.53 -1.59,3.45 -4.434,6.48 -8.348,9.31 -8.054,5.83 -20.605,12.66 -37.859,20.38 l -0.332,13.11 c 19.344,-5.24 42.629,-10.83 69.863,-16.78 -0.519,-51.74 4.422,-123.506 7.91,-177.076 l -12.879,-0.329 c -3.929,16.215 -5.343,25.461 -7.437,27.79 -2.816,3.117 -9.543,4.617 -20.391,4.343 l -5.902,-0.152 -69.23,-1.141 -55.922,-1.41 -25.86,-1.265 c -12.457,-0.317 -20.195,-1.067 -23.2067,-2.207 -3.0118,-1.141 -5.3477,-3.278 -6.9961,-6.407 -1.711,-3.136 -3.5274,-11.492 -5.5079,-25.121 z m -6.3437,-55.41 12.6836,2.266 2.0156,-5.2 c 4.1055,-12.488 7.7774,-19.808 10.9883,-21.859 3.2149,-2.051 8.7889,-2.391 16.7149,-0.977 l 6.164,1.102 57.699,9.688 65.817,12.062 33.468,6.285 c 9.86,1.762 15.954,3.262 18.329,4.559 2.378,1.246 4.058,3.043 4.937,5.258 1.543,3.875 -0.332,10.953 -0.195,22.089 0.015,1.235 0.054,3.094 0.093,5.571 l 12.68,2.265 c 2.387,-20.156 7.645,-37.328 10.352,-52.484 2.562,-14.363 6.554,-33.305 11.965,-56.832 l -12.68,-2.262 c -6.051,14.559 -9.531,22.485 -10.492,23.801 -1.399,2.066 -3.227,3.488 -5.368,4.289 -2.91,1.027 -8.445,0.813 -16.625,-0.551 -19.089,-3 -51.589,-8.597 -97.382,-16.773 l -62.539,-12.098 -5.164,-0.922 c -9.161,-1.632 -14.891,-3.789 -17.133,-6.504 -2.242,-2.718 -3.473,-10.757 -3.699,-24.07 -0.032,-1.5 -0.129,-3.68 -0.286,-6.535 l -12.6793,-2.266 c -3.3008,25.243 -6.0664,44.141 -8.293,56.61 -2.3867,13.363 -6.1719,31.16 -11.3711,53.488 z m 116.7344,-346.281 -12.109,-4.41 c -8.141,26.461 -13.633,43.695 -16.45,51.617 -3.761,10.594 -9.921,26.133 -18.453,46.574 l 12.11,4.41 c 7.41,-10.344 12.16,-16.055 14.25,-17.125 2.089,-1.07 4.414,-1.191 6.824,-0.316 2.301,0.84 5.351,2.758 9.234,5.73 l 112.172,84.106 -93.441,-4.649 -52.414,-3.398 c -1.637,-0.219 -3.161,-0.555 -4.45,-1.024 -2.519,-0.921 -4.117,-2.847 -4.82,-5.851 -0.074,-0.672 -0.137,-7.809 -0.125,-21.383 l -12.164,-4.426 c -4.254,15.531 -7.883,27.52 -10.898,36.012 -2.75,7.73 -7.329,18.836 -13.723,33.262 l 12.109,4.41 c 5.844,-8.434 10.629,-13.695 14.348,-15.793 2.027,-1.258 4.902,-2.043 8.477,-2.301 3.628,-0.242 32.902,0.227 87.8,1.457 38.707,0.996 88.262,2.817 148.633,5.395 l 4.68,-13.168 -117.016,-91.149 c -42.422,-33.816 -65.519,-52.73 -69.222,-56.558 -2.079,-2.161 -3.555,-4.422 -4.407,-6.832 -1.328,-3.391 -1.586,-11.571 -0.945,-24.59 z m 67.199,5.238 6.871,-11.941 c -17.949,-18.207 -27.972,-28.762 -30.035,-31.758 -2.086,-2.953 -3.043,-5.957 -2.793,-9.028 0.203,-3.093 4.004,-11.019 11.399,-23.886 l 7.171,-12.469 141.497,81.359 c 17.578,10.106 28.164,18.075 31.25,21.192 1.609,1.625 2.421,3.754 2.433,6.426 0.012,2.656 -2.426,11.515 -7.312,26.586 l 11.168,6.425 c 21.191,-40.48 34.054,-57.875 57.441,-94.242 l -11.168,-6.422 c -5.746,6.481 -20.195,20.063 -30.437,17.203 -2.961,-0.828 -13.684,-6.586 -32.297,-17.289 l -140,-80.496 12.445,-21.644 c 4.191,-7.293 7.691,-11.707 10.449,-13.278 2.785,-1.492 6.453,-2.011 11.114,-1.379 7.027,0.942 20.269,4.235 39.804,9.86 l 6.742,-11.727 c -15.75,-7.066 -26.511,-12.035 -32.402,-14.949 -5.891,-2.922 -17.133,-8.855 -33.769,-17.844 -18.485,34.539 -37.133,67.93 -55.922,100.25 -16.067,27.219 -27.817,46.703 -35.274,58.36 19.488,11.324 40.031,24.89 61.625,40.691 z m 307.219,-132.629 -9.941,-8.914 c -9.961,6.688 -16.192,10.156 -18.723,10.316 -2.481,0.2 -4.824,-0.652 -7.035,-2.636 -1.242,-1.11 -2.465,-2.602 -3.754,-4.481 -2.703,-4.519 -10.641,-18.269 -23.785,-41.273 9,-9.91 16.547,-18.102 22.648,-24.578 5.024,-5.336 13.465,-14.11 25.348,-26.356 30.937,13.305 47.562,20.992 49.816,23.016 2.164,1.941 3.215,3.91 3.215,5.961 -0.004,2.012 -4.34,7.066 -10.418,17.762 l 9.941,8.91 c 7.325,-9.571 16.067,-17.086 23.61,-25.086 8.109,-8.61 17.097,-16.735 26.394,-24.801 l -10.191,-9.16 c -7.598,4.734 -13.586,7.301 -17.961,7.711 -2.937,0.32 -6.477,-0.164 -10.613,-1.449 -8.211,-2.375 -37.809,-13.95 -88.735,-34.805 C 491.773,260.914 444.461,241 382.137,214.32 l -7.844,8.317 c 15.031,25.422 41.926,74.211 80.559,146.324 21.507,40.082 33.402,63.148 35.711,69.352 1.675,4.261 2.398,7.734 2.234,10.335 -0.164,2.614 0.777,10.981 -4.047,21.422 l 9.945,8.914 c 25.032,-30.804 35.368,-46.511 65.516,-75.031 z m -118.5,-142.734 83.129,35.886 -19.168,20.348 c -4.594,4.867 -11.16,11.84 -19.742,20.945 l -44.219,-77.179"
         style="fill:#252525;fill-opacity:1;fill-rule:nonzero;stroke:none"
         id="path14" /><path
         d="m 1269.45,329.082 c 28.23,7.133 56.78,12.941 85.5,17.652 81.55,13.371 164.61,17.883 246.2,18.645 103.12,0.965 207.87,-4.117 313.27,-9.231 296.62,-14.386 598.4,-29.023 874.44,90.633 l 6.55,-15.172 c -53.98,-23.394 -108.85,-41.707 -164.41,-55.953 51.3,8.207 103.18,18.051 155.66,29.883 l 3.63,-16.141 c -86.88,-19.585 -172.04,-33.781 -255.72,-44.058 83.51,2.793 166.64,4.652 249.29,5.187 l 0.07,-16.531 c -279.24,-1.808 -565.05,-18.851 -852.16,-35.973 l -63.32,-3.769 c 26.56,0.723 53.14,1.461 79.75,2.223 270.65,7.753 544.43,17.722 831.28,30.871 l 0.71,-16.528 c -286.55,-13.14 -560.44,-23.105 -831.54,-30.875 l -26.81,-0.761 61.55,0.398 c 254.79,3.563 513.5,10.383 787.54,24.645 l 0.84,-16.536 c -23.18,-1.203 -46.25,-2.355 -69.22,-3.457 l 61.42,0.399 0.07,-16.531 -779.94,-5.043 -29.47,-0.403 802.06,-0.191 v -44.086 l -1668.02,0.402 -578.94,1419.389 40.977,16.59 55.785,-136.78 c -11.512,46 -20.914,95.78 -28.051,148.79 l 16.403,2.21 c 9.515,-70.67 23.109,-135.53 40.426,-193.27 17.199,-57.37 38.046,-107.57 62.171,-149.29 9.422,-16.29 19.161,-31.92 29.137,-47.04 -14.765,28.6 -28.523,57.64 -41.109,87.38 -39.989,94.52 -68.055,196.1 -78.864,313.97 l 16.465,1.49 c 10.637,-116 38.27,-215.99 77.633,-309.04 30.254,-71.51 67.492,-139.02 109.309,-206.59 7.109,-8.92 14.238,-17.8 21.367,-26.68 126.129,-157.078 252.041,-314.008 265.781,-714.683 2.69,146.492 -1.99,284.753 -38.54,407.921 -30.44,102.598 -107.241,200.752 -185.436,300.692 -86.141,110.09 -173.961,222.33 -205.414,346.83 -19.723,78.07 -22.957,153.15 11.671,227.83 l 15.039,-6.94 c -33.035,-71.26 -29.429,-142.45 -10.632,-216.87 30.609,-121.16 117.316,-231.98 202.367,-340.68 79.183,-101.2 156.955,-200.596 188.285,-306.194 47.8,-161.097 41.98,-346.043 35.64,-541.464 6.8,24.171 12.47,52.007 17.01,81.941 8.07,53.102 12.56,112.434 13.54,169.453 1.46,84.344 -19.63,164.899 -35.93,227.188 l -3.66,14.019 c -29.5,113.727 -74.72,206.387 -118.858,296.837 -48.746,99.89 -96.187,197.11 -120.359,317.78 -25.973,129.67 -21.02,282.88 56.926,394.87 l 7.988,-5.56 7.418,-2.58 c -25.938,-74.63 -30.063,-153.82 -20.485,-236.72 9.645,-83.45 33.153,-170.65 62.336,-260.79 13.778,-42.55 29.314,-87.63 45.124,-133.52 93.22,-270.547 196.15,-569.454 106.26,-862.942 85.5,100.945 188.39,170.309 300.26,216.613 128.59,53.231 268.96,75.95 408.24,81.219 87.83,3.324 172.81,-1.379 256.09,-5.992 84.87,-4.695 167.99,-9.301 250.03,-5.16 101.06,5.101 205.44,23.726 295.11,61.281 75.61,31.668 140.67,76.809 184.21,138.656 l 13.54,-9.531 c -45.48,-64.621 -113.05,-111.609 -191.4,-144.426 -91.51,-38.324 -197.83,-57.316 -300.68,-62.511 -82.92,-4.184 -166.44,0.437 -251.72,5.164 -82.98,4.589 -167.65,9.277 -254.59,5.988 -137.49,-5.203 -275.93,-27.578 -402.54,-79.984 -87.1,-36.055 -168.64,-86.372 -240.45,-155.137 49.22,35.898 106.54,68.601 169.64,96.664 110.69,49.223 239.31,84.226 373.25,97.137 104.53,10.078 205.08,3.992 305.53,-2.086 231,-13.977 370.14,-7.672 588.54,63.117 58.23,18.875 119.07,41.664 184.39,69.82 l 6.55,-15.23 c -65.57,-28.262 -126.91,-51.231 -185.88,-70.34 -220.42,-71.438 -361.46,-78.004 -594.57,-63.899 -99.89,6.043 -199.87,12.094 -303,2.153 -132.1,-12.735 -258.93,-47.242 -368.07,-95.778 -57.23,-25.445 -109.56,-54.734 -155.19,-86.734 59.4,31.82 125.58,59.113 194.71,81.965 146.53,48.437 306.52,77.019 442.97,86.504 93.87,6.523 184.14,1.609 274.2,-3.289 26.91,-1.465 53.82,-2.93 80.13,-4.059 94.61,-4.07 204.56,-4.176 311.46,9.301 106.47,13.422 209.96,40.297 292.18,90.141 l 8.56,-14.133 c -84.47,-51.199 -190.16,-78.731 -298.66,-92.41 -108.07,-13.622 -218.9,-13.528 -314.18,-9.43 -27.25,1.168 -53.78,2.617 -80.33,4.058 -89.52,4.868 -179.25,9.75 -272.26,3.29 -135.15,-9.395 -293.65,-37.715 -438.88,-85.723 -39.21,-12.965 -77.44,-27.356 -113.95,-43.192 93.29,37.911 190.54,64.903 290.5,81.223 167.97,27.422 343.5,24.707 520.61,-6.965 98.59,-17.629 207.79,-36.289 323.53,-34.922 115.54,1.36 238.12,22.622 364.22,84.688 l 7.33,-14.844 c -128.62,-63.305 -253.59,-84.988 -371.36,-86.375 -117.56,-1.387 -227.45,17.383 -326.63,35.121 -175.37,31.356 -349.01,34.067 -515.04,6.961 -112.19,-18.316 -220.93,-50.25 -324.4,-96.16 z m 737.19,-10.016 c -41.41,-0.027 -82.53,0.161 -123.4,0.344 -95.2,0.434 -189,0.86 -281.83,-1.461 l -31.61,-0.761 c -132.56,-3.129 -291.8,-6.895 -395,-37.657 250.52,4.879 503.76,19.981 756,35.024 25.29,1.508 50.58,3.015 75.84,4.511 z m -7.68,16.532 c -28.46,1.265 -56.92,2.644 -85.32,4.019 -105.32,5.113 -210.01,10.188 -312.35,9.231 -80.78,-0.754 -162.99,-5.219 -243.68,-18.45 -18.35,-3.007 -36.63,-6.468 -54.78,-10.449 85.72,9.5 181.57,11.762 266.58,13.766 l 31.62,0.762 c 92.89,2.328 186.88,1.898 282.27,1.464 38.32,-0.171 76.86,-0.347 115.66,-0.343 z M 897.266,1551.7 c -7.328,63.46 -6.801,124.91 5.039,184.07 -45.571,-100.43 -45.442,-222.68 -24.149,-328.96 23.754,-118.58 70.731,-214.85 118.996,-313.76 37.738,-77.34 76.258,-156.277 105.388,-249.085 -26.77,105.98 -62.58,209.915 -97.04,309.925 -15.488,44.95 -30.707,89.11 -45.187,133.85 -29.493,91.09 -53.266,179.32 -63.047,263.96 z M 698.402,1292.66 1080.21,356.582 c -2.95,79.246 -11.79,152.145 -25.2,219.926 -16.69,84.305 -40.4,160.676 -68.604,231.5 -21.078,52.933 -44.535,103.015 -69.894,150.863 -25.348,47.829 -52.547,93.309 -81.121,137.089 -13.317,20.4 -26.289,40.7 -38.86,60.99 -33.875,42.53 -67.304,86.15 -98.129,135.71 z m 197.996,-263.77 c 11.93,-20.36 23.532,-41.109 34.762,-62.3 25.539,-48.188 49.231,-98.793 70.61,-152.485 23.9,-60.019 44.6,-123.871 60.6,-192.937 -30.64,189.559 -94.022,307.891 -165.972,407.722"
         style="fill:#252525;fill-opacity:1;fill-rule:nonzero;stroke:none"
         id="path16" /></g></g></svg>
