<?xml version="1.0" encoding="UTF-8" standalone="no"?>
<!-- Generator: Adobe Illustrator 26.0.1, SVG Export Plug-In . SVG Version: 6.00 Build 0)  -->

<svg
   version="1.1"
   id="Layer_1"
   x="0px"
   y="0px"
   viewBox="0 0 84.999999 84.999999"
   xml:space="preserve"
   sodipodi:docname="logo-aplis.svg"
   width="85"
   height="85"
   inkscape:version="1.1.1 (c3084ef, 2021-09-22)"
   inkscape:export-filename="/Users/normundsg/Downloads/logo-aplis.png"
   inkscape:export-xdpi="50.82"
   inkscape:export-ydpi="50.82"
   xmlns:inkscape="http://www.inkscape.org/namespaces/inkscape"
   xmlns:sodipodi="http://sodipodi.sourceforge.net/DTD/sodipodi-0.dtd"
   xmlns="http://www.w3.org/2000/svg"
   xmlns:svg="http://www.w3.org/2000/svg"><defs
   id="defs7" /><sodipodi:namedview
   id="namedview5"
   pagecolor="#ffffff"
   bordercolor="#666666"
   borderopacity="1.0"
   inkscape:pageshadow="2"
   inkscape:pageopacity="0.0"
   inkscape:pagecheckerboard="0"
   showgrid="false"
   inkscape:showpageshadow="false"
   width="85px"
   inkscape:zoom="8.4548447"
   inkscape:cx="32.466593"
   inkscape:cy="43.939305"
   inkscape:window-width="1697"
   inkscape:window-height="1067"
   inkscape:window-x="68"
   inkscape:window-y="25"
   inkscape:window-maximized="0"
   inkscape:current-layer="Layer_1" />
<path
   d="M 42.5,0 C 27.635119,0 14.105952,7.5589286 6.2940476,20.227976 2.1755952,26.906548 0,34.607143 0,42.5 0,65.935714 19.064286,85 42.5,85 65.935714,85 85,65.935714 85,42.5 85,19.064286 65.935714,0 42.5,0 Z m 0,2.0238095 c 14.045238,0 26.430952,7.1946429 33.696429,18.0827385 H 8.8035714 C 16.332143,8.7630952 28.819048,2.0238095 42.5,2.0238095 Z M 7.5386905,22.130357 H 76.530357 L 12.163095,69.244643 C 5.8589286,62.110714 2.0238095,52.750595 2.0238095,42.5 c 0,-7.184524 1.9125,-14.207143 5.514881,-20.369643 z M 42.5,82.97619 c -11.778571,0 -22.393452,-5.059523 -29.800595,-13.114285 h 59.60119 C 64.893452,77.916667 54.278571,82.97619 42.5,82.97619 Z"
   id="path2"
   style="stroke-width:1.0119"
   fill="#555555" />
</svg>
