<?xml version="1.0" encoding="UTF-8" standalone="no"?>
<svg version="1.1" id="svg4326" viewBox="205 10 125 35" height="55" width="115"
   inkscape:version="1.1.1 (c3084ef, 2021-09-22)" sodipodi:docname="LLVV-2.svg"
   inkscape:export-filename="/Users/normundsg/Projects/Tezaurs/llvv/img/LLVV.png" inkscape:export-xdpi="96"
   inkscape:export-ydpi="96" xmlns:inkscape="http://www.inkscape.org/namespaces/inkscape"
   xmlns:sodipodi="http://sodipodi.sourceforge.net/DTD/sodipodi-0.dtd" xmlns="http://www.w3.org/2000/svg"
   xmlns:svg="http://www.w3.org/2000/svg" xmlns:rdf="http://www.w3.org/1999/02/22-rdf-syntax-ns#"
   xmlns:cc="http://creativecommons.org/ns#" xmlns:dc="http://purl.org/dc/elements/1.1/">
   <sodipodi:namedview pagecolor="#ffffff" bordercolor="#666666" borderopacity="1" objecttolerance="10"
      gridtolerance="10" guidetolerance="10" inkscape:pageopacity="0" inkscape:pageshadow="2"
      inkscape:window-width="1721" inkscape:window-height="1067" id="namedview3566" showgrid="false"
      inkscape:zoom="2.0030769" inkscape:cx="174.48157" inkscape:cy="39.189709" inkscape:window-x="71"
      inkscape:window-y="25" inkscape:window-maximized="1" inkscape:current-layer="svg4326"
      inkscape:pagecheckerboard="0" inkscape:showpageshadow="false" />
   <style id="style3480">


   </style>
   <defs id="defs4328" />
   <metadata id="metadata4331">
      <rdf:RDF>
         <cc:Work rdf:about="">
            <dc:format>
               image/svg+xml
            </dc:format>
            <dc:type rdf:resource="http://purl.org/dc/dcmitype/StillImage" />
         </cc:Work>
      </rdf:RDF>
   </metadata>
      <path id="path3466"
         d="m 215.806,43.79694 q 0,0.673 -0.148,0.938 -0.13,0.285 -0.389,0.285 l -4.74,0 q -0.222,0 -0.426,-0.081 -0.204,-0.062 -0.37,-0.224 -0.167,-0.163 -0.278,-0.448 -0.093,-0.265 -0.093,-0.673 l 0,-32.186 q 0,-0.387 0.093,-0.652 0.111,-0.285 0.278,-0.448 0.167,-0.183 0.37,-0.245 0.204,-0.081 0.426,-0.081 l 4.74,0 q 0.111,0 0.204,0.062 0.111,0.062 0.185,0.224 0.074,0.163 0.111,0.408 0.037,0.224 0.037,0.571 0,0.652 -0.148,0.938 -0.13,0.285 -0.389,0.285 l -3.018,0 0,30.087 3.018,0 q 0.111,0 0.204,0.062 0.111,0.062 0.185,0.204 0.074,0.163 0.111,0.387 0.037,0.245 0.037,0.591 z"
         class="s0" inkscape:connector-curvature="0"
         style="font-size:40px;line-height:125;font-family:Calibri;-inkscape-font-specification:Calibri;letter-spacing:0;word-spacing:0;fill:#424242"
         inkscape:export-xdpi="90" inkscape:export-ydpi="90" />
      <path id="path3470"
         d="m 317.877,43.59394 q 0,0.408 -0.111,0.673 -0.093,0.286 -0.259,0.449 -0.167,0.163 -0.389,0.224 -0.204,0.081 -0.426,0.081 l -4.722,0 q -0.259,0 -0.407,-0.285 -0.13,-0.265 -0.13,-0.938 0,-0.346 0.019,-0.591 0.037,-0.224 0.111,-0.387 0.074,-0.143 0.167,-0.204 0.111,-0.062 0.241,-0.062 l 3.018,0 0,-30.087 -3.018,0 q -0.259,0 -0.407,-0.285 -0.13,-0.285 -0.13,-0.938 0,-0.346 0.019,-0.571 0.037,-0.245 0.111,-0.408 0.074,-0.163 0.167,-0.224 0.111,-0.061 0.241,-0.061 l 4.722,0 q 0.222,0 0.426,0.081 0.222,0.062 0.389,0.245 0.167,0.163 0.259,0.449 0.111,0.265 0.111,0.652 l 0,32.186 z"
         class="s0" inkscape:connector-curvature="0"
         style="font-size:40px;line-height:125;font-family:Calibri;-inkscape-font-specification:Calibri;letter-spacing:0;word-spacing:0;fill:#424242"
         inkscape:export-xdpi="90" inkscape:export-ydpi="90" />
      <path id="path3472"
         d="m 325,20.44694 q 0,0.652 -0.093,1.101 -0.074,0.448 -0.315,0.734 -0.222,0.265 -0.593,0.387 -0.37,0.102 -0.944,0.102 -0.593,0 -0.963,-0.102 -0.37,-0.122 -0.593,-0.387 -0.222,-0.285 -0.315,-0.734 -0.074,-0.448 -0.074,-1.101 0,-0.693 0.074,-1.141 0.093,-0.469 0.315,-0.734 0.222,-0.285 0.593,-0.387 0.37,-0.122 0.963,-0.122 0.574,0 0.944,0.122 0.37,0.102 0.593,0.387 0.241,0.265 0.315,0.734 0.093,0.448 0.093,1.142 z m 0,14.147 q 0,0.673 -0.093,1.121 -0.074,0.448 -0.315,0.734 -0.222,0.265 -0.593,0.367 -0.37,0.122 -0.944,0.122 -0.593,0 -0.963,-0.122 -0.37,-0.102 -0.593,-0.367 -0.222,-0.285 -0.315,-0.734 -0.074,-0.448 -0.074,-1.121 0,-0.673 0.074,-1.121 0.093,-0.469 0.315,-0.734 0.222,-0.265 0.593,-0.387 0.37,-0.122 0.963,-0.122 0.574,0 0.944,0.122 0.37,0.122 0.593,0.387 0.241,0.265 0.315,0.734 0.093,0.448 0.093,1.121 z"
         class="s0" inkscape:connector-curvature="0"
         style="font-size:40px;line-height:125;font-family:Calibri;-inkscape-font-specification:Calibri;letter-spacing:0;word-spacing:0;fill:#424242"
         inkscape:export-xdpi="90" inkscape:export-ydpi="90" />

      <g aria-label="LLVV" id="text19352" style="font-size:42.6667px;line-height:1.25;letter-spacing:3px">
         <path
            d="m 233.9125,38.687686 q 0,0.625001 -0.0625,1.062501 -0.0417,0.416667 -0.14583,0.708334 -0.10417,0.270834 -0.27083,0.395834 -0.14584,0.125 -0.35417,0.125 h -12.35418 q -0.6875,0 -1.16666,-0.395834 -0.45834,-0.416667 -0.45834,-1.333334 V 14.771002 q 0,-0.208333 0.125,-0.375 0.14584,-0.166667 0.45834,-0.270834 0.3125,-0.104167 0.83333,-0.166667 0.54167,-0.0625 1.33334,-0.0625 0.8125,0 1.33333,0.0625 0.52083,0.0625 0.83333,0.166667 0.3125,0.104167 0.4375,0.270834 0.14584,0.166667 0.14584,0.375 v 21.687516 h 8.47917 q 0.20833,0 0.35417,0.125 0.16666,0.104167 0.27083,0.375001 0.10417,0.25 0.14583,0.6875 0.0625,0.416667 0.0625,1.041667 z"
            style="font-weight:bold;font-family:Calibri;-inkscape-font-specification:'Calibri, Bold';fill:#424242"
            id="path29078" />
         <path
            d="m 254.99585,38.687686 q 0,0.625001 -0.0625,1.062501 -0.0417,0.416667 -0.14583,0.708334 -0.10417,0.270834 -0.27084,0.395834 -0.14583,0.125 -0.35416,0.125 h -12.35418 q -0.6875,0 -1.16667,-0.395834 -0.45833,-0.416667 -0.45833,-1.333334 V 14.771002 q 0,-0.208333 0.125,-0.375 0.14583,-0.166667 0.45833,-0.270834 0.3125,-0.104167 0.83334,-0.166667 0.54167,-0.0625 1.33333,-0.0625 0.8125,0 1.33334,0.0625 0.52083,0.0625 0.83333,0.166667 0.3125,0.104167 0.4375,0.270834 0.14583,0.166667 0.14583,0.375 v 21.687516 h 8.47918 q 0.20833,0 0.35416,0.125 0.16667,0.104167 0.27084,0.375001 0.10416,0.25 0.14583,0.6875 0.0625,0.416667 0.0625,1.041667 z"
            style="font-weight:bold;font-family:Calibri;-inkscape-font-specification:'Calibri, Bold';fill:#424242"
            id="path29080" />
         <path
            d="m 271.35003,40.021021 q -0.10417,0.354167 -0.27084,0.583334 -0.16666,0.208333 -0.54166,0.333333 -0.375,0.104167 -1.02084,0.125 -0.64583,0.04167 -1.6875,0.04167 -0.83333,0 -1.4375,-0.02083 -0.58333,0 -1,-0.04167 -0.41667,-0.04167 -0.6875,-0.125 -0.25,-0.08333 -0.4375,-0.208334 -0.16667,-0.125 -0.27083,-0.291667 -0.0833,-0.1875 -0.16667,-0.458333 L 255.80835,16.06267 q -0.25,-0.750001 -0.3125,-1.187501 -0.0417,-0.437501 0.20833,-0.645834 0.27084,-0.229167 0.89584,-0.270834 0.625,-0.0625 1.75,-0.0625 0.95833,0 1.5,0.04167 0.54167,0.04167 0.83333,0.145833 0.29167,0.104167 0.39584,0.312501 0.125,0.208333 0.22916,0.520833 l 6.56251,20.791683 h 0.0208 l 6.43751,-20.687516 q 0.0833,-0.354167 0.20833,-0.5625 0.125,-0.229167 0.41667,-0.354167 0.3125,-0.125 0.875,-0.166667 0.5625,-0.04167 1.54167,-0.04167 0.95833,0 1.47916,0.0625 0.54167,0.0625 0.72917,0.312501 0.20833,0.229166 0.125,0.666667 -0.0625,0.4375 -0.3125,1.166667 z"
            style="font-weight:bold;font-family:Calibri;-inkscape-font-specification:'Calibri, Bold';fill:#424242"
            id="path29082" />
         <path
            d="m 299.76672,40.021021 q -0.10417,0.354167 -0.27084,0.583334 -0.16666,0.208333 -0.54167,0.333333 -0.375,0.104167 -1.02083,0.125 -0.64583,0.04167 -1.6875,0.04167 -0.83333,0 -1.4375,-0.02083 -0.58334,0 -1,-0.04167 -0.41667,-0.04167 -0.6875,-0.125 -0.25,-0.08333 -0.4375,-0.208334 -0.16667,-0.125 -0.27084,-0.291667 -0.0833,-0.1875 -0.16666,-0.458333 L 284.22504,16.06267 q -0.25,-0.750001 -0.3125,-1.187501 -0.0417,-0.437501 0.20833,-0.645834 0.27083,-0.229167 0.89583,-0.270834 0.625,-0.0625 1.75001,-0.0625 0.95833,0 1.5,0.04167 0.54166,0.04167 0.83333,0.145833 0.29167,0.104167 0.39583,0.312501 0.125,0.208333 0.22917,0.520833 l 6.56251,20.791683 h 0.0208 l 6.4375,-20.687516 q 0.0833,-0.354167 0.20834,-0.5625 0.125,-0.229167 0.41666,-0.354167 0.31251,-0.125 0.87501,-0.166667 0.5625,-0.04167 1.54166,-0.04167 0.95834,0 1.47917,0.0625 0.54167,0.0625 0.72917,0.312501 0.20833,0.229166 0.125,0.666667 -0.0625,0.4375 -0.3125,1.166667 z"
            style="font-weight:bold;font-family:Calibri;-inkscape-font-specification:'Calibri, Bold';fill:#424242"
            id="path29084" />
      </g>
</svg>